<?xml version="1.0" encoding="UTF-8" standalone="no"?>
<!-- Created with Inkscape (http://www.inkscape.org/) -->

<svg
   xmlns:dc="http://purl.org/dc/elements/1.1/"
   xmlns:cc="http://creativecommons.org/ns#"
   xmlns:rdf="http://www.w3.org/1999/02/22-rdf-syntax-ns#"
   xmlns:svg="http://www.w3.org/2000/svg"
   xmlns="http://www.w3.org/2000/svg"
   xmlns:sodipodi="http://sodipodi.sourceforge.net/DTD/sodipodi-0.dtd"
   xmlns:inkscape="http://www.inkscape.org/namespaces/inkscape"
   width="400"
   height="300"
   id="svg2"
   version="1.1"
   inkscape:version="0.48.3.1 r9886"
   sodipodi:docname="buttons.svg"
   inkscape:export-filename="/home/viktor/Desktop/G-Unit/src/web/static/img/buttons.png"
   inkscape:export-xdpi="90"
   inkscape:export-ydpi="90">
  <defs
     id="defs4">
    <filter
       inkscape:collect="always"
       id="filter3871"
       x="-0.19971818"
       width="1.3994364"
       y="-0.30063635"
       height="1.6012727"
       color-interpolation-filters="sRGB">
      <feGaussianBlur
         inkscape:collect="always"
         stdDeviation="11.810714"
         id="feGaussianBlur3873" />
    </filter>
    <filter
       inkscape:collect="always"
       id="filter3916"
       x="-0.23999999"
       width="1.48"
       y="-0.23999999"
       height="1.48"
       color-interpolation-filters="sRGB">
      <feGaussianBlur
         inkscape:collect="always"
         stdDeviation="24.571875"
         id="feGaussianBlur3918" />
    </filter>
  </defs>
  <sodipodi:namedview
     id="base"
     pagecolor="#ffffff"
     bordercolor="#666666"
     borderopacity="1.0"
     inkscape:pageopacity="0.0"
     inkscape:pageshadow="2"
     inkscape:zoom="1"
     inkscape:cx="188.01359"
     inkscape:cy="156.68297"
     inkscape:document-units="px"
     inkscape:current-layer="layer1"
     showgrid="false"
     inkscape:window-width="1280"
     inkscape:window-height="741"
     inkscape:window-x="0"
     inkscape:window-y="27"
     inkscape:window-maximized="1"
     width="300px" />
  <metadata
     id="metadata7">
    <rdf:RDF>
      <cc:Work
         rdf:about="">
        <dc:format>image/svg+xml</dc:format>
        <dc:type
           rdf:resource="http://purl.org/dc/dcmitype/StillImage" />
        <dc:title></dc:title>
      </cc:Work>
    </rdf:RDF>
  </metadata>
  <g
     inkscape:label="Layer 1"
     inkscape:groupmode="layer"
     id="layer1"
     transform="translate(0,-752.362)">
    <g
       id="g3920"
       transform="matrix(0.70383675,0,0,0.70383675,91.72334,253.24327)">
      <rect
         style="fill:#666666;fill-opacity:0.74429226;stroke:none;filter:url(#filter3871)"
         id="rect3845"
         width="94.285713"
         height="141.92856"
         x="805.76044"
         y="-81.550713"
         ry="16.503323"
         rx="47.142857"
         transform="matrix(0,1,-1,0,0,4)" />
      <rect
         transform="matrix(0,1,-1,0,0,0)"
         rx="47.142857"
         ry="16.503323"
         y="-81.550713"
         x="809.76044"
         height="141.92856"
         width="94.285713"
         id="rect2985"
         style="fill:#b3ff80;fill-opacity:1;stroke:#333333;stroke-width:0.76001072;stroke-miterlimit:4;stroke-dasharray:none;stroke-dashoffset:0" />
      <path
         transform="matrix(0.84428859,0,0,0.84428859,-48.21948,692.66987)"
         inkscape:transform-center-y="-10.328283"
         d="m 112.37677,224.68556 -42.376769,0 -42.376775,0 L 48.811613,187.98619 70,151.28683 91.188387,187.98619 z"
         inkscape:randomized="0"
         inkscape:rounded="0"
         inkscape:flatsided="false"
         sodipodi:arg2="1.5707963"
         sodipodi:arg1="0.52359878"
         sodipodi:r2="24.466242"
         sodipodi:r1="48.932484"
         sodipodi:cy="200.21931"
         sodipodi:cx="70"
         sodipodi:sides="3"
         id="path3003"
         style="fill:none;stroke:#666666;stroke-width:6.44803238;stroke-linecap:round;stroke-linejoin:round;stroke-miterlimit:4;stroke-opacity:1;stroke-dasharray:none;stroke-dashoffset:0"
         sodipodi:type="star" />
      <text
         sodipodi:linespacing="125%"
         id="text3773"
         y="874.18903"
         x="4.6221519"
         style="font-size:40px;font-style:normal;font-weight:normal;line-height:125%;letter-spacing:0px;word-spacing:0px;fill:#666666;fill-opacity:1;stroke:none;font-family:Sans"
         xml:space="preserve"><tspan
           style="font-style:normal;font-variant:normal;font-weight:bold;font-stretch:normal;fill:#666666;font-family:Helvetica Rounded LT Std;-inkscape-font-specification:Helvetica Rounded LT Std Bold"
           y="874.18903"
           x="4.6221519"
           id="tspan3775"
           sodipodi:role="line">!</tspan></text>
    </g>
    <g
       id="g3927"
       transform="matrix(0.70383675,0,0,0.70383675,90.31567,253.24327)">
      <path
         style="fill:#666666;fill-opacity:0.74509804;stroke:#333333;stroke-width:1;stroke-miterlimit:4;stroke-dasharray:none;stroke-dashoffset:0;filter:url(#filter3916)"
         d="m 245.04625,799.75095 c -26.11714,0 -47.125,12.76518 -47.125,28.59375 l 0,47.125 -47.15625,0 c -15.82857,0 -28.5625,21.03911 -28.5625,47.15625 0,26.11714 12.73393,47.125 28.5625,47.125 l 47.15625,0 0,47.15625 c 0,15.8286 21.00786,28.5625 47.125,28.5625 26.11714,0 47.15625,-12.7339 47.15625,-28.5625 l 0,-47.15625 47.125,0 c 15.82857,0 28.59375,-21.00786 28.59375,-47.125 0,-26.11714 -12.76518,-47.15625 -28.59375,-47.15625 l -47.125,0 0,-47.125 c 0,-15.82857 -21.03911,-28.59375 -47.15625,-28.59375 z"
         id="path3882"
         inkscape:connector-curvature="0" />
      <path
         inkscape:connector-curvature="0"
         id="rect2987"
         d="m 245.04625,799.75095 c -26.11714,0 -47.125,12.76518 -47.125,28.59375 l 0,47.125 -47.15625,0 c -15.82857,0 -28.5625,21.03911 -28.5625,47.15625 0,26.11714 12.73393,47.125 28.5625,47.125 l 47.15625,0 0,47.15625 c 0,15.8286 21.00786,28.5625 47.125,28.5625 26.11714,0 47.15625,-12.7339 47.15625,-28.5625 l 0,-47.15625 47.125,0 c 15.82857,0 28.59375,-21.00786 28.59375,-47.125 0,-26.11714 -12.76518,-47.15625 -28.59375,-47.15625 l -47.125,0 0,-47.125 c 0,-15.82857 -21.03911,-28.59375 -47.15625,-28.59375 z"
         style="fill:#cccccc;fill-opacity:1;stroke:#333333;stroke-width:1;stroke-miterlimit:4;stroke-dasharray:none;stroke-dashoffset:0" />
      <path
         sodipodi:type="star"
         style="fill:none;stroke:#666666;stroke-width:6.44803238;stroke-linecap:round;stroke-linejoin:round;stroke-miterlimit:4;stroke-opacity:1;stroke-dasharray:none;stroke-dashoffset:0"
         id="path3777"
         sodipodi:sides="3"
         sodipodi:cx="70"
         sodipodi:cy="200.21931"
         sodipodi:r1="48.932484"
         sodipodi:r2="24.466242"
         sodipodi:arg1="0.52359878"
         sodipodi:arg2="1.5707963"
         inkscape:flatsided="false"
         inkscape:rounded="0"
         inkscape:randomized="0"
         d="m 112.37677,224.68556 -42.376769,0 -42.376775,0 L 48.811613,187.98619 70,151.28683 91.188387,187.98619 z"
         inkscape:transform-center-y="-6.494146"
         transform="matrix(0.53086555,0,0,0.53086555,207.43828,736.30335)" />
      <path
         transform="matrix(0.53086555,0,0,-0.53086555,207.43828,1109.8941)"
         inkscape:transform-center-y="6.4941477"
         d="m 112.37677,224.68556 -42.376769,0 -42.376775,0 L 48.811613,187.98619 70,151.28683 91.188387,187.98619 z"
         inkscape:randomized="0"
         inkscape:rounded="0"
         inkscape:flatsided="false"
         sodipodi:arg2="1.5707963"
         sodipodi:arg1="0.52359878"
         sodipodi:r2="24.466242"
         sodipodi:r1="48.932484"
         sodipodi:cy="200.21931"
         sodipodi:cx="70"
         sodipodi:sides="3"
         id="path3779"
         style="fill:none;stroke:#666666;stroke-width:6.44803238;stroke-linecap:round;stroke-linejoin:round;stroke-miterlimit:4;stroke-opacity:1;stroke-dasharray:none;stroke-dashoffset:0"
         sodipodi:type="star" />
      <path
         inkscape:transform-center-x="6.4941443"
         sodipodi:type="star"
         style="fill:none;stroke:#666666;stroke-width:6.44803238;stroke-linecap:round;stroke-linejoin:round;stroke-miterlimit:4;stroke-opacity:1;stroke-dasharray:none;stroke-dashoffset:0"
         id="path3781"
         sodipodi:sides="3"
         sodipodi:cx="70"
         sodipodi:cy="200.21931"
         sodipodi:r1="48.932484"
         sodipodi:r2="24.466242"
         sodipodi:arg1="0.52359878"
         sodipodi:arg2="1.5707963"
         inkscape:flatsided="false"
         inkscape:rounded="0"
         inkscape:randomized="0"
         d="m 112.37677,224.68556 -42.376769,0 -42.376775,0 L 48.811613,187.98619 70,151.28683 91.188387,187.98619 z"
         transform="matrix(0,0.53086555,0.53086555,0,56.30933,886.44401)" />
      <path
         transform="matrix(0,0.53086555,-0.53086555,0,435.90012,886.44401)"
         d="m 112.37677,224.68556 -42.376769,0 -42.376775,0 L 48.811613,187.98619 70,151.28683 91.188387,187.98619 z"
         inkscape:randomized="0"
         inkscape:rounded="0"
         inkscape:flatsided="false"
         sodipodi:arg2="1.5707963"
         sodipodi:arg1="0.52359878"
         sodipodi:r2="24.466242"
         sodipodi:r1="48.932484"
         sodipodi:cy="200.21931"
         sodipodi:cx="70"
         sodipodi:sides="3"
         id="path3783"
         style="fill:none;stroke:#666666;stroke-width:6.44803238;stroke-linecap:round;stroke-linejoin:round;stroke-miterlimit:4;stroke-opacity:1;stroke-dasharray:none;stroke-dashoffset:0"
         sodipodi:type="star"
         inkscape:transform-center-x="-6.494146" />
    </g>
    <g
       id="g3935"
       transform="matrix(0.70383675,0,0,0.70383675,91.72334,253.24327)">
      <rect
         transform="matrix(0,1,-1,0,0,140)"
         rx="47.142857"
         ry="16.503323"
         y="-81.550713"
         x="805.76044"
         height="141.92856"
         width="94.285713"
         id="rect3875"
         style="fill:#666666;fill-opacity:0.74429226;stroke:none;filter:url(#filter3871)" />
      <rect
         style="fill:#ff8080;fill-opacity:1;stroke:#333333;stroke-width:0.76001072;stroke-miterlimit:4;stroke-dasharray:none;stroke-dashoffset:0"
         id="rect2997"
         width="94.285713"
         height="141.92856"
         x="945.76044"
         y="-81.550713"
         ry="16.503323"
         rx="47.142857"
         transform="matrix(0,1,-1,0,0,0)" />
      <path
         transform="matrix(1.2312174,0.4957307,-0.4957307,1.2312174,-217.61102,645.84551)"
         d="m 225.58167,179.50503 9.03484,-21.81204 21.81205,-9.03484 21.81204,9.03484 9.03485,21.81205 -9.03485,21.81204 -21.81204,9.03484 -21.81205,-9.03484 z"
         inkscape:randomized="0"
         inkscape:rounded="0"
         inkscape:flatsided="true"
         sodipodi:arg2="3.5342917"
         sodipodi:arg1="3.1415927"
         sodipodi:r2="28.49881"
         sodipodi:r1="30.846889"
         sodipodi:cy="179.50504"
         sodipodi:cx="256.42856"
         sodipodi:sides="8"
         id="path3793"
         style="fill:#ffaaaa;fill-opacity:1;stroke:#666666;stroke-width:1.70000005;stroke-linecap:round;stroke-linejoin:round;stroke-miterlimit:4;stroke-opacity:1;stroke-dasharray:none;stroke-dashoffset:0"
         sodipodi:type="star" />
      <path
         inkscape:connector-curvature="0"
         id="path3818"
         d="m 25.861411,978.52119 -35.33564,35.33561"
         style="fill:#999999;stroke:#666666;stroke-width:5.45007324;stroke-linecap:round;stroke-linejoin:miter;stroke-miterlimit:4;stroke-opacity:1;stroke-dasharray:none" />
      <path
         style="fill:#999999;stroke:#666666;stroke-width:5.45007324;stroke-linecap:round;stroke-linejoin:miter;stroke-miterlimit:4;stroke-opacity:1;stroke-dasharray:none"
         d="m -9.474229,978.52119 35.33564,35.33561"
         id="path3820"
         inkscape:connector-curvature="0" />
    </g>
  </g>
</svg>
